<svg id="Layer_1" data-name="Layer 1" xmlns="http://www.w3.org/2000/svg" viewBox="0 0 31.7 25.8"><path d="M2.94 13.27A7.28 7.28 0 0 1 .5 7.88a7.28 7.28 0 0 1 2.44-5.39A7.73 7.73 0 0 1 8.18.5a7.73 7.73 0 0 1 5.24 2l2.43 2.23 2.43-2.23a7.89 7.89 0 0 1 10.48 0 7.28 7.28 0 0 1 2.44 5.38 7.28 7.28 0 0 1-2.44 5.39L15.85 25.12z" fill="#dd3c4b"/><path d="M23.52 1a7.18 7.18 0 0 1 4.9 1.86 6.76 6.76 0 0 1 2.28 5 6.76 6.76 0 0 1-2.28 5L15.85 24.44 3.28 12.9A6.76 6.76 0 0 1 1 7.88a6.76 6.76 0 0 1 2.28-5A7.18 7.18 0 0 1 8.18 1a7.2 7.2 0 0 1 4.9 1.86l2.09 1.92.68.62.68-.62 2.09-1.92A7.18 7.18 0 0 1 23.52 1m0-1a8.26 8.26 0 0 0-5.58 2.12L15.85 4l-2.09-1.88A8.26 8.26 0 0 0 8.18 0 8.26 8.26 0 0 0 2.6 2.12a7.68 7.68 0 0 0 0 11.52L15.85 25.8 29.1 13.64a7.69 7.69 0 0 0 0-11.52A8.26 8.26 0 0 0 23.52 0z" fill="#fff"/></svg>