<svg id="Layer_1" data-name="Layer 1" xmlns="http://www.w3.org/2000/svg" viewBox="0 0 18.88 15.59"><defs><style>.cls-1{fill:#fff}</style></defs><path class="cls-1" d="M13.94 1a3.87 3.87 0 0 1 2.63 1 3.64 3.64 0 0 1 1.22 2.68 3.64 3.64 0 0 1-1.22 2.68l-7.18 6.57-7.17-6.58a3.55 3.55 0 0 1 0-5.35 3.87 3.87 0 0 1 2.63-1 3.87 3.87 0 0 1 2.63 1l1.24 1.13.67.62.68-.62L11.31 2a3.87 3.87 0 0 1 2.63-1m0-1a4.89 4.89 0 0 0-3.31 1.26L9.39 2.39 8.15 1.26A4.87 4.87 0 0 0 4.85 0a4.87 4.87 0 0 0-3.31 1.26 4.55 4.55 0 0 0 0 6.82l7.85 7.21 7.86-7.21a4.55 4.55 0 0 0 0-6.82A4.89 4.89 0 0 0 13.94 0z"/><path class="cls-1" d="M14 1.3a3.87 3.87 0 0 1 2.63 1A3.64 3.64 0 0 1 17.88 5a3.64 3.64 0 0 1-1.22 2.68l-7.18 6.55-7.17-6.58a3.55 3.55 0 0 1 0-5.36 3.85 3.85 0 0 1 2.63-1 3.89 3.89 0 0 1 2.63 1l1.24 1.14.67.62.68-.62 1.24-1.14A3.87 3.87 0 0 1 14 1.3m0-1a4.89 4.89 0 0 0-3.31 1.26L9.48 2.69 8.24 1.56A4.87 4.87 0 0 0 4.94.3a4.87 4.87 0 0 0-3.31 1.26 4.55 4.55 0 0 0 0 6.82l7.85 7.21 7.86-7.21a4.55 4.55 0 0 0 0-6.82A4.89 4.89 0 0 0 14 .3z"/></svg>